<svg xmlns="http://www.w3.org/2000/svg" width="182" height="216" viewBox="-0.5 -0.5 182 216"><g stroke-miterlimit="10" pointer-events="none"><path d="M81 61q65 0 65 58.03" fill="none" stroke="#000" stroke-width="4"/><path d="M146 126.53l-5-10 5 2.5 5-2.5z" stroke="#000" stroke-width="4"/><path d="M1 17.55C1 8.41 18.91 1 41 1s40 7.41 40 16.55v86.89c0 9.14-17.91 16.55-40 16.55s-40-7.41-40-16.55z" fill="#dae8fc" stroke="#6c8ebf" stroke-width="2"/><path d="M1 17.55C1 26.69 18.91 34.1 41 34.1s40-7.41 40-16.55M1 44.86C1 54 18.91 61.41 41 61.41S81 54 81 44.86M1 75.89c0 9.14 17.91 16.55 40 16.55s40-7.41 40-16.55" fill="none" stroke="#6c8ebf" stroke-width="2"/><path d="M138.64 189.33c2.32.61 4.71.81 7.26.81 17.73 0 30.84-12.81 30.84-27.81 0-13.02-11.38-27.5-31.28-27.5-15.77 0-30.22 11.56-30.22 28.38.63 9.38 5.01 16.07 11.85 20.98l9.89-10.25 6.75 3.74zM117.27 215c-2.81 0-6.27-2.08-6.27-6.05v-71.79c0-3.47 2.96-6.16 6.53-6.16h56.84c4.36 0 6.63 3.39 6.63 5.85v72.13c0 3.44-3.2 6.02-6.43 6.02zm-.09-17.02c-1.24 1.69-2.02 3.05-2.02 4.7 0 4.04 3.69 6.58 7.03 6.58 3.7 0 5.87-1.93 7.31-4.67l10.99-25.87-3.13-1.64zm5.02 8.04c-1.64 0-2.77-1.23-2.77-2.36 0-1.88 1.79-2.55 2.64-2.55 2.11 0 2.82 1.58 2.82 2.42 0 1.43-1.28 2.49-2.69 2.49zm23.64-34.89c-5.55 0-9.52-4.27-9.52-8.42 0-5.29 4.59-8.84 9.33-8.84 5.77-.08 10.08 4.01 9.89 8.85 0 4.34-4.05 8.41-9.7 8.41z" fill="#d5e8d4" stroke="#82b366"/></g></svg>